<mxfile host="app.diagrams.net" agent="Mozilla/5.0 (Windows NT 10.0; Win64; x64) AppleWebKit/537.36 (KHTML, like Gecko) Chrome/128.0.0.0 Safari/537.36" version="24.7.10">
  <diagram name="Page-1" id="e7e014a7-5840-1c2e-5031-d8a46d1fe8dd">
    <mxGraphModel grid="1" page="1" gridSize="10" guides="1" tooltips="1" connect="1" arrows="1" fold="1" pageScale="1" pageWidth="1169" pageHeight="826" background="none" math="0" shadow="0">
      <root>
        <mxCell id="0" />
        <mxCell id="1" parent="0" />
        <mxCell id="HpwXHJGGa_-WTaevqyDO-70" value="" style="edgeStyle=orthogonalEdgeStyle;rounded=0;orthogonalLoop=1;jettySize=auto;html=1;" edge="1" parent="1" source="HpwXHJGGa_-WTaevqyDO-75" target="HpwXHJGGa_-WTaevqyDO-69">
          <mxGeometry relative="1" as="geometry" />
        </mxCell>
        <mxCell id="HpwXHJGGa_-WTaevqyDO-72" value="" style="edgeStyle=orthogonalEdgeStyle;rounded=0;orthogonalLoop=1;jettySize=auto;html=1;" edge="1" parent="1" source="HpwXHJGGa_-WTaevqyDO-78" target="HpwXHJGGa_-WTaevqyDO-71">
          <mxGeometry relative="1" as="geometry" />
        </mxCell>
        <mxCell id="HpwXHJGGa_-WTaevqyDO-74" value="" style="edgeStyle=orthogonalEdgeStyle;rounded=0;orthogonalLoop=1;jettySize=auto;html=1;" edge="1" parent="1" source="HpwXHJGGa_-WTaevqyDO-83">
          <mxGeometry relative="1" as="geometry">
            <mxPoint x="670" y="50" as="sourcePoint" />
            <mxPoint x="890" y="81" as="targetPoint" />
          </mxGeometry>
        </mxCell>
        <mxCell id="HpwXHJGGa_-WTaevqyDO-99" style="edgeStyle=orthogonalEdgeStyle;rounded=0;orthogonalLoop=1;jettySize=auto;html=1;exitX=0.75;exitY=1;exitDx=0;exitDy=0;" edge="1" parent="1" source="HpwXHJGGa_-WTaevqyDO-60">
          <mxGeometry relative="1" as="geometry">
            <mxPoint x="780" y="250" as="targetPoint" />
            <Array as="points">
              <mxPoint x="630" y="110" />
              <mxPoint x="780" y="110" />
            </Array>
          </mxGeometry>
        </mxCell>
        <mxCell id="HpwXHJGGa_-WTaevqyDO-60" value="University" style="swimlane;fontStyle=0;childLayout=stackLayout;horizontal=1;startSize=20;fillColor=none;horizontalStack=0;resizeParent=1;resizeParentMax=0;resizeLast=0;collapsible=1;marginBottom=0;whiteSpace=wrap;html=1;" vertex="1" parent="1">
          <mxGeometry x="525" y="20" width="140" height="52" as="geometry" />
        </mxCell>
        <mxCell id="HpwXHJGGa_-WTaevqyDO-69" value="Classes" style="swimlane;fontStyle=0;childLayout=stackLayout;horizontal=1;startSize=20;fillColor=none;horizontalStack=0;resizeParent=1;resizeParentMax=0;resizeLast=0;collapsible=1;marginBottom=0;whiteSpace=wrap;html=1;" vertex="1" parent="1">
          <mxGeometry x="220" y="90" width="140" height="52" as="geometry" />
        </mxCell>
        <mxCell id="HpwXHJGGa_-WTaevqyDO-71" value="Work Offices" style="swimlane;fontStyle=0;childLayout=stackLayout;horizontal=1;startSize=20;fillColor=none;horizontalStack=0;resizeParent=1;resizeParentMax=0;resizeLast=0;collapsible=1;marginBottom=0;whiteSpace=wrap;html=1;" vertex="1" parent="1">
          <mxGeometry x="525" y="152" width="140" height="52" as="geometry" />
        </mxCell>
        <mxCell id="HpwXHJGGa_-WTaevqyDO-102" value="" style="edgeStyle=orthogonalEdgeStyle;rounded=0;orthogonalLoop=1;jettySize=auto;html=1;" edge="1" parent="1" source="HpwXHJGGa_-WTaevqyDO-122" target="HpwXHJGGa_-WTaevqyDO-101">
          <mxGeometry relative="1" as="geometry" />
        </mxCell>
        <mxCell id="HpwXHJGGa_-WTaevqyDO-73" value="Departments" style="swimlane;fontStyle=0;childLayout=stackLayout;horizontal=1;startSize=20;fillColor=none;horizontalStack=0;resizeParent=1;resizeParentMax=0;resizeLast=0;collapsible=1;marginBottom=0;whiteSpace=wrap;html=1;" vertex="1" parent="1">
          <mxGeometry x="820" y="80" width="140" height="52" as="geometry" />
        </mxCell>
        <mxCell id="HpwXHJGGa_-WTaevqyDO-75" value="" style="rhombus;whiteSpace=wrap;html=1;" vertex="1" parent="1">
          <mxGeometry x="505" y="37" width="20" height="18" as="geometry" />
        </mxCell>
        <mxCell id="HpwXHJGGa_-WTaevqyDO-78" value="" style="rhombus;whiteSpace=wrap;html=1;" vertex="1" parent="1">
          <mxGeometry x="585" y="72" width="20" height="18" as="geometry" />
        </mxCell>
        <mxCell id="HpwXHJGGa_-WTaevqyDO-83" value="" style="rhombus;whiteSpace=wrap;html=1;" vertex="1" parent="1">
          <mxGeometry x="665" y="40" width="20" height="18" as="geometry" />
        </mxCell>
        <mxCell id="HpwXHJGGa_-WTaevqyDO-89" value="1..*" style="text;html=1;align=center;verticalAlign=middle;whiteSpace=wrap;rounded=0;" vertex="1" parent="1">
          <mxGeometry x="280" y="60" width="60" height="30" as="geometry" />
        </mxCell>
        <mxCell id="HpwXHJGGa_-WTaevqyDO-91" value="1..*" style="text;html=1;align=center;verticalAlign=middle;whiteSpace=wrap;rounded=0;" vertex="1" parent="1">
          <mxGeometry x="880" y="55" width="60" height="30" as="geometry" />
        </mxCell>
        <mxCell id="HpwXHJGGa_-WTaevqyDO-92" value="1..*" style="text;html=1;align=center;verticalAlign=middle;whiteSpace=wrap;rounded=0;" vertex="1" parent="1">
          <mxGeometry x="540" y="122" width="60" height="30" as="geometry" />
        </mxCell>
        <mxCell id="HpwXHJGGa_-WTaevqyDO-128" style="edgeStyle=orthogonalEdgeStyle;rounded=0;orthogonalLoop=1;jettySize=auto;html=1;exitX=1;exitY=0.75;exitDx=0;exitDy=0;" edge="1" parent="1" source="HpwXHJGGa_-WTaevqyDO-100">
          <mxGeometry relative="1" as="geometry">
            <mxPoint x="1000" y="250" as="targetPoint" />
            <Array as="points">
              <mxPoint x="890" y="289" />
              <mxPoint x="890" y="250" />
            </Array>
          </mxGeometry>
        </mxCell>
        <mxCell id="HpwXHJGGa_-WTaevqyDO-100" value="Employees" style="swimlane;fontStyle=0;childLayout=stackLayout;horizontal=1;startSize=20;fillColor=none;horizontalStack=0;resizeParent=1;resizeParentMax=0;resizeLast=0;collapsible=1;marginBottom=0;whiteSpace=wrap;html=1;" vertex="1" parent="1">
          <mxGeometry x="710" y="250" width="140" height="52" as="geometry" />
        </mxCell>
        <mxCell id="HpwXHJGGa_-WTaevqyDO-101" value="Offices" style="swimlane;fontStyle=0;childLayout=stackLayout;horizontal=1;startSize=20;fillColor=none;horizontalStack=0;resizeParent=1;resizeParentMax=0;resizeLast=0;collapsible=1;marginBottom=0;whiteSpace=wrap;html=1;" vertex="1" parent="1">
          <mxGeometry x="1000" y="200" width="140" height="74" as="geometry" />
        </mxCell>
        <mxCell id="HpwXHJGGa_-WTaevqyDO-103" value="has" style="text;html=1;align=center;verticalAlign=middle;whiteSpace=wrap;rounded=0;" vertex="1" parent="1">
          <mxGeometry x="370" y="20" width="60" height="30" as="geometry" />
        </mxCell>
        <mxCell id="HpwXHJGGa_-WTaevqyDO-104" value="has" style="text;html=1;align=center;verticalAlign=middle;whiteSpace=wrap;rounded=0;" vertex="1" parent="1">
          <mxGeometry x="750" y="20" width="60" height="20" as="geometry" />
        </mxCell>
        <mxCell id="HpwXHJGGa_-WTaevqyDO-105" value="has" style="text;html=1;align=center;verticalAlign=middle;whiteSpace=wrap;rounded=0;" vertex="1" parent="1">
          <mxGeometry x="555" y="95" width="60" height="30" as="geometry" />
        </mxCell>
        <mxCell id="HpwXHJGGa_-WTaevqyDO-108" value="has" style="text;html=1;align=center;verticalAlign=middle;whiteSpace=wrap;rounded=0;" vertex="1" parent="1">
          <mxGeometry x="1060" y="112" width="60" height="30" as="geometry" />
        </mxCell>
        <mxCell id="HpwXHJGGa_-WTaevqyDO-109" value="1..*" style="text;html=1;align=center;verticalAlign=middle;whiteSpace=wrap;rounded=0;" vertex="1" parent="1">
          <mxGeometry x="1050" y="163" width="60" height="30" as="geometry" />
        </mxCell>
        <mxCell id="HpwXHJGGa_-WTaevqyDO-118" style="edgeStyle=orthogonalEdgeStyle;rounded=0;orthogonalLoop=1;jettySize=auto;html=1;" edge="1" parent="1" source="HpwXHJGGa_-WTaevqyDO-111">
          <mxGeometry relative="1" as="geometry">
            <mxPoint x="780" y="300" as="targetPoint" />
            <Array as="points">
              <mxPoint x="670" y="370" />
              <mxPoint x="780" y="370" />
            </Array>
          </mxGeometry>
        </mxCell>
        <mxCell id="HpwXHJGGa_-WTaevqyDO-111" value="Professors" style="swimlane;fontStyle=0;childLayout=stackLayout;horizontal=1;startSize=20;fillColor=none;horizontalStack=0;resizeParent=1;resizeParentMax=0;resizeLast=0;collapsible=1;marginBottom=0;whiteSpace=wrap;html=1;" vertex="1" parent="1">
          <mxGeometry x="600" y="413" width="140" height="52" as="geometry" />
        </mxCell>
        <mxCell id="HpwXHJGGa_-WTaevqyDO-116" value="Officers" style="swimlane;fontStyle=0;childLayout=stackLayout;horizontal=1;startSize=20;fillColor=none;horizontalStack=0;resizeParent=1;resizeParentMax=0;resizeLast=0;collapsible=1;marginBottom=0;whiteSpace=wrap;html=1;" vertex="1" parent="1">
          <mxGeometry x="830" y="413" width="140" height="52" as="geometry" />
        </mxCell>
        <mxCell id="HpwXHJGGa_-WTaevqyDO-121" value="" style="edgeStyle=orthogonalEdgeStyle;rounded=0;orthogonalLoop=1;jettySize=auto;html=1;exitX=0.5;exitY=0;exitDx=0;exitDy=0;" edge="1" parent="1" source="HpwXHJGGa_-WTaevqyDO-116" target="HpwXHJGGa_-WTaevqyDO-120">
          <mxGeometry relative="1" as="geometry">
            <mxPoint x="780" y="302" as="targetPoint" />
            <mxPoint x="900" y="390" as="sourcePoint" />
            <Array as="points">
              <mxPoint x="900" y="370" />
              <mxPoint x="781" y="370" />
            </Array>
          </mxGeometry>
        </mxCell>
        <mxCell id="HpwXHJGGa_-WTaevqyDO-120" value="" style="triangle;whiteSpace=wrap;html=1;direction=north;" vertex="1" parent="1">
          <mxGeometry x="767.75" y="302" width="24.5" height="10.5" as="geometry" />
        </mxCell>
        <mxCell id="HpwXHJGGa_-WTaevqyDO-122" value="" style="rhombus;whiteSpace=wrap;html=1;fillColor=#000000;gradientColor=none;" vertex="1" parent="1">
          <mxGeometry x="960" y="91" width="30" height="20" as="geometry" />
        </mxCell>
        <mxCell id="HpwXHJGGa_-WTaevqyDO-125" value="1..*" style="text;html=1;align=center;verticalAlign=middle;resizable=0;points=[];autosize=1;strokeColor=none;fillColor=none;" vertex="1" parent="1">
          <mxGeometry x="780" y="222" width="40" height="30" as="geometry" />
        </mxCell>
        <mxCell id="HpwXHJGGa_-WTaevqyDO-126" value="has&lt;div&gt;&lt;br&gt;&lt;/div&gt;" style="text;html=1;align=center;verticalAlign=middle;resizable=0;points=[];autosize=1;strokeColor=none;fillColor=none;" vertex="1" parent="1">
          <mxGeometry x="720" y="85" width="40" height="40" as="geometry" />
        </mxCell>
      </root>
    </mxGraphModel>
  </diagram>
</mxfile>
